<?xml version="1.0" encoding="UTF-8" standalone="no"?>
<!DOCTYPE svg PUBLIC "-//W3C//DTD SVG 1.1//EN" "http://www.w3.org/Graphics/SVG/1.1/DTD/svg11.dtd">
<svg width="100%" height="100%" viewBox="0 0 800 800" version="1.1" xmlns="http://www.w3.org/2000/svg" xmlns:xlink="http://www.w3.org/1999/xlink" xml:space="preserve" xmlns:serif="http://www.serif.com/" style="fill-rule:evenodd;clip-rule:evenodd;stroke-linejoin:round;stroke-miterlimit:2;">
    <path d="M689.434,-0L223.093,-0C206.682,-0 193.377,13.305 193.377,29.716L193.377,110.514L110.566,110.514C94.155,110.514 80.85,123.819 80.85,140.23L80.85,770.284C80.85,786.695 94.155,800 110.566,800L578.068,800C594.479,800 607.784,786.695 607.784,770.284L607.784,704.502L689.434,704.502C705.845,704.502 719.15,691.197 719.15,674.786L719.15,29.716C719.15,13.305 705.845,-0 689.434,-0ZM493.422,593.338L195.208,593.338C178.797,593.338 165.492,580.033 165.492,563.622C165.492,547.211 178.797,533.907 195.208,533.907L493.426,533.907C509.837,533.907 523.142,547.211 523.142,563.622C523.142,580.033 509.833,593.338 493.422,593.338ZM493.422,400.555L195.208,400.555C178.797,400.555 165.492,387.25 165.492,370.839C165.492,354.428 178.797,341.123 195.208,341.123L493.426,341.123C509.837,341.123 523.142,354.428 523.142,370.839C523.142,387.25 509.833,400.555 493.422,400.555ZM493.422,251.145L195.208,251.145C178.797,251.145 165.492,237.84 165.492,221.429C165.492,205.018 178.797,191.713 195.208,191.713L493.426,191.713C509.837,191.713 523.142,205.018 523.142,221.429C523.142,237.84 509.833,251.145 493.422,251.145ZM659.718,645.071L607.784,645.071L607.784,140.23C607.784,123.819 594.479,110.514 578.068,110.514L252.809,110.514L252.809,59.431L659.718,59.431L659.718,645.071Z" style="fill:white;fill-rule:nonzero;"/>
</svg>
