<?xml version="1.0" encoding="UTF-8" standalone="no"?>
<!DOCTYPE svg PUBLIC "-//W3C//DTD SVG 1.1//EN" "http://www.w3.org/Graphics/SVG/1.1/DTD/svg11.dtd">
<svg width="100%" height="100%" viewBox="0 0 800 800" version="1.1" xmlns="http://www.w3.org/2000/svg" xmlns:xlink="http://www.w3.org/1999/xlink" xml:space="preserve" xmlns:serif="http://www.serif.com/" style="fill-rule:evenodd;clip-rule:evenodd;stroke-linejoin:round;stroke-miterlimit:2;">
    <g>
        <path d="M782.47,350.383L698.438,330.564C690.734,297.341 677.673,266.186 660.142,238.075L705.538,164.65C711.088,155.645 709.733,144.05 702.261,136.58L663.417,97.736C655.961,90.28 644.352,88.923 635.361,94.473L561.938,139.87C533.825,122.341 502.686,109.264 469.463,101.563L449.63,17.531C447.205,7.264 438.022,0 427.481,0L372.534,0C361.98,0 352.811,7.264 350.384,17.53L330.552,101.563C297.328,109.266 266.186,122.328 238.091,139.858L164.652,94.463C155.675,88.925 144.037,90.283 136.595,97.725L97.739,136.581C90.269,144.05 88.925,155.661 94.477,164.638L139.858,238.075C122.327,266.188 109.264,297.327 101.563,330.55L17.544,350.369C7.277,352.809 0,361.994 0,372.519L0,427.466C0,438.033 7.264,447.189 17.544,449.614L101.563,469.448C109.266,502.673 122.342,533.814 139.872,561.925L94.477,635.348C88.939,644.327 90.283,655.977 97.727,663.419L136.583,702.262C144.053,709.745 155.661,711.075 164.653,705.523L238.092,660.142C266.189,677.673 297.33,690.734 330.553,698.436L350.384,782.469C352.811,792.75 361.98,800 372.534,800L427.481,800C438.022,800 447.205,792.75 449.63,782.469L469.462,698.436C502.672,690.733 533.825,677.673 561.925,660.142L635.362,705.538C644.353,711.088 655.963,709.731 663.419,702.262L702.277,663.419C709.733,655.963 711.089,644.341 705.539,635.362L660.144,561.925C677.675,533.827 690.736,502.673 698.439,469.462L782.472,449.63C792.766,447.191 800.002,438.022 800.002,427.467L800.002,372.531C800,361.978 792.75,352.809 782.47,350.383ZM400,610.334C283.853,610.334 189.678,516.159 189.678,400C189.678,283.841 283.853,189.664 400,189.664C516.186,189.664 610.348,283.839 610.348,400C610.348,516.159 516.186,610.334 400,610.334Z" style="fill:white;fill-rule:nonzero;"/>
        <path d="M400,266.694C326.384,266.694 266.694,326.372 266.694,400C266.694,473.628 326.384,533.305 400,533.305C473.63,533.305 533.306,473.63 533.306,400C533.306,326.37 473.63,266.694 400,266.694ZM400,465.405C363.884,465.405 334.594,436.114 334.594,400C334.594,363.884 363.884,334.594 400,334.594C436.116,334.594 465.405,363.884 465.405,400C465.405,436.116 436.116,465.405 400,465.405Z" style="fill:white;fill-rule:nonzero;"/>
    </g>
</svg>
