<?xml version="1.0" encoding="UTF-8" standalone="no"?>
<!DOCTYPE svg PUBLIC "-//W3C//DTD SVG 1.1//EN" "http://www.w3.org/Graphics/SVG/1.1/DTD/svg11.dtd">
<svg width="100%" height="100%" viewBox="0 0 800 800" version="1.1" xmlns="http://www.w3.org/2000/svg" xmlns:xlink="http://www.w3.org/1999/xlink" xml:space="preserve" xmlns:serif="http://www.serif.com/" style="fill-rule:evenodd;clip-rule:evenodd;stroke-linejoin:round;stroke-miterlimit:2;">
    <g id="people_user" transform="matrix(1,0,0,1,-9225.87,-7356.96)">
        <path d="M9453.08,7822.31L9481.84,7814.47C9503.54,7808.68 9525.8,7802.72 9543.78,7796.97C9529.58,7775.03 9517.57,7751.75 9507.92,7727.46C9501.32,7721.64 9495.43,7715.05 9490.38,7707.84C9480.43,7693.89 9473.32,7678.11 9469.45,7661.42C9466.91,7650.76 9465.61,7639.84 9465.59,7628.88C9465.35,7610.73 9469.44,7592.78 9477.5,7576.52C9479.31,7540.96 9488.94,7506.24 9505.7,7474.83C9486.43,7460.31 9462.98,7452.4 9438.85,7452.29C9374.2,7452.37 9321.36,7509.01 9320.01,7579.45C9314.9,7587.9 9312.31,7597.64 9312.55,7607.52C9312.55,7613.02 9313.21,7618.49 9314.52,7623.84C9316.43,7632.17 9319.95,7640.06 9324.9,7647.03C9328.05,7651.6 9331.97,7655.6 9336.47,7658.84C9344.83,7681.77 9356.97,7703.13 9372.4,7722.03L9372.4,7722.6C9372.4,7722.78 9372.4,7723.5 9372.32,7724.11C9367.88,7726.67 9363.18,7728.75 9358.3,7730.31C9345.42,7734.98 9327.72,7739.77 9308.82,7744.79L9290.81,7749.62C9261.95,7758.12 9227.26,7786.08 9225.91,7871.53L9225.91,7874.46L9226.06,7877.48L9226.69,7889.68L9238.16,7893.87L9241,7894.87C9276.54,7907.5 9313.36,7916.24 9350.8,7920.92C9366.96,7873.51 9405.11,7836.73 9453.08,7822.31ZM9923.92,7850.94C9914.44,7848.3 9905.1,7845.79 9896.07,7843.33C9866.7,7835.49 9838.97,7828.04 9818.56,7820.6C9811.07,7818.16 9803.86,7814.92 9797.06,7810.94C9797.06,7810.32 9797.06,7809.69 9796.97,7809.24C9796.89,7808.79 9796.97,7808.24 9796.97,7807.73C9821.06,7778.14 9840.07,7744.76 9853.23,7708.95C9860.14,7703.88 9866.17,7697.71 9871.08,7690.68C9878.86,7679.66 9884.43,7667.23 9887.46,7654.08C9889.43,7645.75 9890.43,7637.22 9890.44,7628.67C9890.78,7613.26 9886.74,7598.07 9878.79,7584.87C9876.93,7475.15 9794.53,7386.32 9692.93,7386.21C9591.92,7386.32 9509.35,7474.83 9507.19,7584.89C9499.21,7598.12 9495.17,7613.36 9495.54,7628.81C9495.55,7637.4 9496.59,7645.95 9498.62,7654.29C9501.61,7667.3 9507.12,7679.61 9514.84,7690.5C9519.79,7697.64 9525.89,7703.9 9532.9,7709.03C9546.02,7744.81 9565,7778.17 9589.06,7807.73C9589.07,7808.02 9589.07,7808.32 9589.06,7808.61C9589.06,7809.24 9588.98,7810.03 9588.93,7810.99C9581.99,7814.98 9574.64,7818.21 9567.02,7820.65C9546.98,7827.93 9519.2,7835.43 9489.76,7843.31L9461.6,7850.96C9416.53,7864.25 9362.31,7907.89 9360.2,8041.46L9360.2,8046.02L9360.44,8050.73L9361.39,8069.81L9379.3,8076.24L9383.76,8077.85C9584.58,8144.18 9801.51,8144.18 10002.3,8077.85L10007,8076.15L10025.5,8069.36L10025.8,8049.65L10025.9,8044.28L10025.9,8040.09C10023.6,7907.94 9969.42,7864.3 9923.92,7850.94Z" style="fill:white;fill-rule:nonzero;"/>
    </g>
</svg>
